<svg width="0" height="0" class="hidden">
  <symbol role="img" xmlns="http://www.w3.org/2000/svg" viewBox="0 0 24 24" id="instagram">
    <title>Instagram</title>
    <path fill="currentColor" d="M7.0301.084c-1.2768.0602-2.1487.264-2.911.5634-.7888.3075-1.4575.72-2.1228 1.3877-.6652.6677-1.075 1.3368-1.3802 2.127-.2954.7638-.4956 1.6365-.552 2.914-.0564 1.2775-.0689 1.6882-.0626 4.947.0062 3.2586.0206 3.6671.0825 4.9473.061 1.2765.264 2.1482.5635 2.9107.308.7889.72 1.4573 1.388 2.1228.6679.6655 1.3365 1.0743 2.1285 1.38.7632.295 1.6361.4961 2.9134.552 1.2773.056 1.6884.069 4.9462.0627 3.2578-.0062 3.668-.0207 4.9478-.0814 1.28-.0607 2.147-.2652 2.9098-.5633.7889-.3086 1.4578-.72 2.1228-1.3881.665-.6682 1.0745-1.3378 1.3795-2.1284.2957-.7632.4966-1.636.552-2.9124.056-1.2809.0692-1.6898.063-4.948-.0063-3.2583-.021-3.6668-.0817-4.9465-.0607-1.2797-.264-2.1487-.5633-2.9117-.3084-.7889-.72-1.4568-1.3876-2.1228C21.2982 1.33 20.628.9208 19.8378.6165 19.074.321 18.2017.1197 16.9244.0645 15.6471.0093 15.236-.005 11.977.0014 8.718.0076 8.31.0215 7.0301.0839m.1402 21.6932c-1.17-.0509-1.8053-.2453-2.2287-.408-.5606-.216-.96-.4771-1.3819-.895-.422-.4178-.6811-.8186-.9-1.378-.1644-.4234-.3624-1.058-.4171-2.228-.0595-1.2645-.072-1.6442-.079-4.848-.007-3.2037.0053-3.583.0607-4.848.05-1.169.2456-1.805.408-2.2282.216-.5613.4762-.96.895-1.3816.4188-.4217.8184-.6814 1.3783-.9003.423-.1651 1.0575-.3614 2.227-.4171 1.2655-.06 1.6447-.072 4.848-.079 3.2033-.007 3.5835.005 4.8495.0608 1.169.0508 1.8053.2445 2.228.408.5608.216.96.4754 1.3816.895.4217.4194.6816.8176.9005 1.3787.1653.4217.3617 1.056.4169 2.2263.0602 1.2655.0739 1.645.0796 4.848.0058 3.203-.0055 3.5834-.061 4.848-.051 1.17-.245 1.8055-.408 2.2294-.216.5604-.4763.96-.8954 1.3814-.419.4215-.8181.6811-1.3783.9-.4224.1649-1.0577.3617-2.2262.4174-1.2656.0595-1.6448.072-4.8493.079-3.2045.007-3.5825-.006-4.848-.0608M16.953 5.5864A1.44 1.44 0 1 0 18.39 4.144a1.44 1.44 0 0 0-1.437 1.4424M5.8385 12.012c.0067 3.4032 2.7706 6.1557 6.173 6.1493 3.4026-.0065 6.157-2.7701 6.1506-6.1733-.0065-3.4032-2.771-6.1565-6.174-6.1498-3.403.0067-6.156 2.771-6.1496 6.1738M8 12.0077a4 4 0 1 1 4.008 3.9921A3.9996 3.9996 0 0 1 8 12.0077"></path>
  </symbol>
  <symbol role="img" xmlns="http://www.w3.org/2000/svg" viewBox="0 0 24 24" id="git">
    <title>Git</title>
    <path fill="currentColor" d="M23.546 10.93L13.067.452c-.604-.603-1.582-.603-2.188 0L8.708 2.627l2.76 2.76c.645-.215 1.379-.07 1.889.441.516.515.658 1.258.438 1.9l2.658 2.66c.645-.223 1.387-.078 1.9.435.721.72.721 1.884 0 2.604-.719.719-1.881.719-2.6 0-.539-.541-.674-1.337-.404-1.996L12.86 8.955v6.525c.176.086.342.203.488.348.713.721.713 1.883 0 2.6-.719.721-1.889.721-2.609 0-.719-.719-.719-1.879 0-2.598.182-.18.387-.316.605-.406V8.835c-.217-.091-.424-.222-.6-.401-.545-.545-.676-1.342-.396-2.009L7.636 3.7.45 10.881c-.6.605-.6 1.584 0 2.189l10.48 10.477c.604.604 1.582.604 2.186 0l10.43-10.43c.605-.603.605-1.582 0-2.187"></path>
  </symbol>
  <symbol role="img" xmlns="http://www.w3.org/2000/svg" viewBox="0 0 24 24" id="github">
    <title>GitHub</title>
    <path fill="currentColor" d="M12 .297c-6.63 0-12 5.373-12 12 0 5.303 3.438 9.8 8.205 11.385.6.113.82-.258.82-.577 0-.285-.01-1.04-.015-2.04-3.338.724-4.042-1.61-4.042-1.61C4.422 18.07 3.633 17.7 3.633 17.7c-1.087-.744.084-.729.084-.729 1.205.084 1.838 1.236 1.838 1.236 1.07 1.835 2.809 1.305 3.495.998.108-.776.417-1.305.76-1.605-2.665-.3-5.466-1.332-5.466-5.93 0-1.31.465-2.38 1.235-3.22-.135-.303-.54-1.523.105-3.176 0 0 1.005-.322 3.3 1.23.96-.267 1.98-.399 3-.405 1.02.006 2.04.138 3 .405 2.28-1.552 3.285-1.23 3.285-1.23.645 1.653.24 2.873.12 3.176.765.84 1.23 1.91 1.23 3.22 0 4.61-2.805 5.625-5.475 5.92.42.36.81 1.096.81 2.22 0 1.606-.015 2.896-.015 3.286 0 .315.21.69.825.57C20.565 22.092 24 17.592 24 12.297c0-6.627-5.373-12-12-12"></path>
  </symbol>
  <symbol role="img" xmlns="http://www.w3.org/2000/svg" viewBox="0 0 24 24" id="x">
    <title>X</title>
    <path fill="currentColor" d="M14.234 10.162 22.977 0h-2.072l-7.591 8.824L7.251 0H.258l9.168 13.343L.258 24H2.33l8.016-9.318L16.749 24h6.993zm-2.837 3.299-.929-1.329L3.076 1.56h3.182l5.965 8.532.929 1.329 7.754 11.09h-3.182z"></path>
  </symbol>
  <symbol role="img" xmlns="http://www.w3.org/2000/svg" viewBox="0 0 24 24" id="python">
    <title>Python</title>
    <path fill="currentColor" d="M14.25.18l.9.2.73.26.59.3.45.32.34.34.25.34.16.33.1.3.04.26.02.2-.01.13V8.5l-.05.63-.13.55-.21.46-.26.38-.3.31-.33.25-.35.19-.35.14-.33.1-.3.07-.26.04-.21.02H8.77l-.69.05-.59.14-.5.22-.41.27-.33.32-.27.35-.2.36-.15.37-.1.35-.07.32-.04.27-.02.21v3.06H3.17l-.21-.03-.28-.07-.32-.12-.35-.18-.36-.26-.36-.36-.35-.46-.32-.59-.28-.73-.21-.88-.14-1.05-.05-1.23.06-1.22.16-1.04.24-.87.32-.71.36-.57.4-.44.42-.33.42-.24.4-.16.36-.1.32-.05.24-.01h.16l.06.01h8.16v-.83H6.18l-.01-2.75-.02-.37.05-.34.11-.31.17-.28.25-.26.31-.23.38-.2.44-.18.51-.15.58-.12.64-.1.71-.06.77-.04.84-.02 1.27.05zm-6.3 1.98l-.23.33-.08.41.08.41.23.34.33.22.41.09.41-.09.33-.22.23-.34.08-.41-.08-.41-.23-.33-.33-.22-.41-.09-.41.09zm13.09 3.95l.28.06.32.12.35.18.36.27.36.35.35.47.32.59.28.73.21.88.14 1.04.05 1.23-.06 1.23-.16 1.04-.24.86-.32.71-.36.57-.4.45-.42.33-.42.24-.4.16-.36.09-.32.05-.24.02-.16-.01h-8.22v.82h5.84l.01 2.76.02.36-.05.34-.11.31-.17.29-.25.25-.31.24-.38.2-.44.17-.51.15-.58.13-.64.09-.71.07-.77.04-.84.01-1.27-.04-1.07-.14-.9-.2-.73-.25-.59-.3-.45-.33-.34-.34-.25-.34-.16-.33-.1-.3-.04-.25-.02-.2.01-.13v-5.34l.05-.64.13-.54.21-.46.26-.38.3-.32.33-.24.35-.2.35-.14.33-.1.3-.06.26-.04.21-.02.13-.01h5.84l.69-.05.59-.14.5-.21.41-.28.33-.32.27-.35.2-.36.15-.36.1-.35.07-.32.04-.28.02-.21V6.07h2.09l.14.01zm-6.47 14.25l-.23.33-.08.41.08.41.23.33.33.23.41.08.41-.08.33-.23.23-.33.08-.41-.08-.41-.23-.33-.33-.23-.41-.08-.41.08z"></path>
  </symbol>
  <symbol role="img" xmlns="http://www.w3.org/2000/svg" viewBox="0 0 24 24" id="tailwindcss">
    <title>Tailwind CSS</title>
    <path fill="currentColor" d="M12.001,4.8c-3.2,0-5.2,1.6-6,4.8c1.2-1.6,2.6-2.2,4.2-1.8c0.913,0.228,1.565,0.89,2.288,1.624 C13.666,10.618,15.027,12,18.001,12c3.2,0,5.2-1.6,6-4.8c-1.2,1.6-2.6,2.2-4.2,1.8c-0.913-0.228-1.565-0.89-2.288-1.624 C16.337,6.182,14.976,4.8,12.001,4.8z M6.001,12c-3.2,0-5.2,1.6-6,4.8c1.2-1.6,2.6-2.2,4.2-1.8c0.913,0.228,1.565,0.89,2.288,1.624 c1.177,1.194,2.538,2.576,5.512,2.576c3.2,0,5.2-1.6,6-4.8c-1.2,1.6-2.6,2.2-4.2,1.8c-0.913-0.228-1.565-0.89-2.288-1.624 C10.337,13.382,8.976,12,6.001,12z"></path>
  </symbol>
  <symbol role="img" xmlns="http://www.w3.org/2000/svg" viewBox="0 0 24 24" id="css">
    <title>CSS</title>
    <path fill="currentColor" d="M0 0v20.16A3.84 3.84 0 0 0 3.84 24h16.32A3.84 3.84 0 0 0 24 20.16V3.84A3.84 3.84 0 0 0 20.16 0Zm14.256 13.08c1.56 0 2.28 1.08 2.304 2.64h-1.608c.024-.288-.048-.6-.144-.84-.096-.192-.288-.264-.552-.264-.456 0-.696.264-.696.84-.024.576.288.888.768 1.08.72.288 1.608.744 1.92 1.296q.432.648.432 1.656c0 1.608-.912 2.592-2.496 2.592-1.656 0-2.4-1.032-2.424-2.688h1.68c0 .792.264 1.176.792 1.176.264 0 .456-.072.552-.24.192-.312.24-1.176-.048-1.512-.312-.408-.912-.6-1.32-.816q-.828-.396-1.224-.936c-.24-.36-.36-.888-.36-1.536 0-1.44.936-2.472 2.424-2.448m5.4 0c1.584 0 2.304 1.08 2.328 2.64h-1.608c0-.288-.048-.6-.168-.84-.096-.192-.264-.264-.528-.264-.48 0-.72.264-.72.84s.288.888.792 1.08c.696.288 1.608.744 1.92 1.296.264.432.408.984.408 1.656.024 1.608-.888 2.592-2.472 2.592-1.68 0-2.424-1.056-2.448-2.688h1.68c0 .744.264 1.176.792 1.176.264 0 .456-.072.552-.24.216-.312.264-1.176-.048-1.512-.288-.408-.888-.6-1.32-.816-.552-.264-.96-.576-1.2-.936s-.36-.888-.36-1.536c-.024-1.44.912-2.472 2.4-2.448m-11.031.018c.711-.006 1.419.198 1.839.63.432.432.672 1.128.648 1.992H9.336c.024-.456-.096-.792-.432-.96-.312-.144-.768-.048-.888.24-.12.264-.192.576-.168.864v3.504c0 .744.264 1.128.768 1.128a.65.65 0 0 0 .552-.264c.168-.24.192-.552.168-.84h1.776c.096 1.632-.984 2.712-2.568 2.688-1.536 0-2.496-.864-2.472-2.472v-4.032c0-.816.24-1.44.696-1.848.432-.408 1.146-.624 1.857-.63"></path>
  </symbol>
  <symbol role="img" xmlns="http://www.w3.org/2000/svg" viewBox="0 0 24 24" id="html5">
    <title>HTML5</title>
    <path fill="currentColor" d="M1.5 0h21l-1.91 21.563L11.977 24l-8.564-2.438L1.5 0zm7.031 9.75l-.232-2.718 10.059.003.23-2.622L5.412 4.41l.698 8.01h9.126l-.326 3.426-2.91.804-2.955-.81-.188-2.11H6.248l.33 4.171L12 19.351l5.379-1.443.744-8.157H8.531z"></path>
  </symbol>
</svg>